<?xml version="1.0" encoding="utf-8"?>
<!-- Generator: Adobe Illustrator 27.5.0, SVG Export Plug-In . SVG Version: 6.00 Build 0)  -->
<svg version="1.1" xmlns="http://www.w3.org/2000/svg" xmlns:xlink="http://www.w3.org/1999/xlink" x="0px" y="0px"
	 viewBox="0 0 500 500" style="enable-background:new 0 0 500 500;" xml:space="preserve">
<g id="Background_Simple">
	<g>
		<g>
			<path style="fill:#C6FF00;" d="M455.691,245.667c-0.053,0.273-0.095,0.557-0.158,0.83c-2.134,11.719-5.644,22.46-10.3,32.308
				c-4.992,10.563-11.309,20.106-18.698,28.714c-7.094,8.271-15.177,15.692-24.026,22.355c-8.461,6.38-17.615,12.055-27.263,17.121
				c-8.776,4.614-17.972,8.723-27.432,12.37c-1.556,0.61-3.122,1.198-4.688,1.776c-7.704,2.838-15.524,5.276-23.427,7.315
				c-9.176,2.386-18.456,4.246-27.81,5.612c-9.522,1.408-19.118,2.302-28.745,2.722c-9.585,0.41-19.202,0.368-28.798-0.116
				c-10.195-0.525-20.369-1.534-30.48-2.995c-10.584-1.534-21.084-3.573-31.457-6.075c-3.111-0.736-6.212-1.524-9.301-2.354
				c-8.335-2.239-16.921-4.582-25.466-7.273c-12.56-3.952-25.056-8.639-36.544-14.819c-7.809-4.204-15.166-9.081-21.767-14.893
				c-3.437-3.038-6.684-6.285-9.722-9.732c-0.357-0.399-0.704-0.799-1.04-1.209c-9.197-10.72-16.344-23.217-20.842-36.586
				c-2.827-8.398-4.625-17.121-5.224-25.971c-0.347-5.024-0.305-10.048,0.105-15.051c1.125-14.147,5.15-28.041,11.593-40.696
				c4.782-9.428,10.92-18.162,18.193-25.813c2.449-2.575,5.013-4.961,7.662-7.168c11.088-9.291,23.732-15.713,36.586-21.882
				c10.142-4.866,20.411-9.564,30.154-15.387c3.027-1.797,5.991-3.71,8.892-5.76c4.688-3.321,9.07-7,13.306-10.868
				c6.558-5.98,12.77-12.392,19.181-18.561c4.236-4.088,8.566-8.072,13.138-11.761c2.848-2.302,5.791-4.467,8.818-6.485
				c8.051-5.434,16.68-9.922,25.697-13.464c9.407-3.731,19.244-6.432,29.271-8.124c10.069-1.713,20.348-2.407,30.595-2.091
				c15.881,0.494,31.699,3.405,46.644,8.713c2.438,0.872,4.856,1.797,7.241,2.796c7.483,3.111,14.756,6.863,21.777,11.162
				c9.459,5.802,18.445,12.623,26.791,20.264c8.125,7.42,15.65,15.618,22.408,24.426c6.716,8.734,12.686,18.056,17.773,27.799
				c5.318,10.174,9.669,20.789,12.885,31.667c3.237,10.92,5.339,22.092,6.148,33.328
				C458.171,223.102,457.667,234.464,455.691,245.667z"/>
			<path style="opacity:0.5;fill:#FFFFFF;" d="M455.691,245.667c-0.053,0.273-0.095,0.557-0.158,0.83
				c-2.134,11.719-5.644,22.46-10.3,32.308c-4.992,10.563-11.309,20.106-18.698,28.714c-7.094,8.271-15.177,15.692-24.026,22.355
				c-8.461,6.38-17.615,12.055-27.263,17.121c-8.776,4.614-17.972,8.723-27.432,12.37c-1.556,0.61-3.122,1.198-4.688,1.776
				c-7.704,2.838-15.524,5.276-23.427,7.315c-9.176,2.386-18.456,4.246-27.81,5.612c-9.522,1.408-19.118,2.302-28.745,2.722
				c-9.585,0.41-19.202,0.368-28.798-0.116c-10.195-0.525-20.369-1.534-30.48-2.995c-10.584-1.534-21.084-3.573-31.457-6.075
				c-3.111-0.736-6.212-1.524-9.301-2.354c-8.335-2.239-16.921-4.582-25.466-7.273c-12.56-3.952-25.056-8.639-36.544-14.819
				c-7.809-4.204-15.166-9.081-21.767-14.893c-3.437-3.038-6.684-6.285-9.722-9.732c-0.357-0.399-0.704-0.799-1.04-1.209
				c-9.197-10.72-16.344-23.217-20.842-36.586c-2.827-8.398-4.625-17.121-5.224-25.971c-0.347-5.024-0.305-10.048,0.105-15.051
				c1.125-14.147,5.15-28.041,11.593-40.696c4.782-9.428,10.92-18.162,18.193-25.813c2.449-2.575,5.013-4.961,7.662-7.168
				c11.088-9.291,23.732-15.713,36.586-21.882c10.142-4.866,20.411-9.564,30.154-15.387c3.027-1.797,5.991-3.71,8.892-5.76
				c4.688-3.321,9.07-7,13.306-10.868c6.558-5.98,12.77-12.392,19.181-18.561c4.236-4.088,8.566-8.072,13.138-11.761
				c2.848-2.302,5.791-4.467,8.818-6.485c8.051-5.434,16.68-9.922,25.697-13.464c9.407-3.731,19.244-6.432,29.271-8.124
				c10.069-1.713,20.348-2.407,30.595-2.091c15.881,0.494,31.699,3.405,46.644,8.713c2.438,0.872,4.856,1.797,7.241,2.796
				c7.483,3.111,14.756,6.863,21.777,11.162c9.459,5.802,18.445,12.623,26.791,20.264c8.125,7.42,15.65,15.618,22.408,24.426
				c6.716,8.734,12.686,18.056,17.773,27.799c5.318,10.174,9.669,20.789,12.885,31.667c3.237,10.92,5.339,22.092,6.148,33.328
				C458.171,223.102,457.667,234.464,455.691,245.667z"/>
		</g>
		<g style="opacity:0.6;">
			<path style="fill:#FFFFFF;" d="M420.555,119.019l-153.723,98.933L398.147,94.593
				C406.272,102.014,413.797,110.212,420.555,119.019z"/>
			<path style="fill:#FFFFFF;" d="M451.214,178.486l-184.381,39.466l171.495-71.133
				C443.646,156.993,447.998,167.608,451.214,178.486z"/>
			<path style="fill:#FFFFFF;" d="M455.691,245.667c-0.053,0.273-0.095,0.557-0.158,0.83l-188.701-28.546l190.529-6.138
				C458.171,223.102,457.667,234.464,455.691,245.667z"/>
			<path style="fill:#FFFFFF;" d="M445.233,278.806c-4.992,10.563-11.309,20.106-18.698,28.714l-159.703-89.568L445.233,278.806z"/>
			<path style="fill:#FFFFFF;" d="M402.509,329.875c-8.461,6.38-17.615,12.055-27.263,17.121L266.833,217.952L402.509,329.875z"/>
			<path style="fill:#FFFFFF;" d="M347.814,359.367c-1.556,0.61-3.122,1.198-4.688,1.776c-7.704,2.838-15.524,5.276-23.427,7.315
				l-52.866-150.507L347.814,359.367z"/>
			<path style="fill:#FFFFFF;" d="M291.889,374.071c-9.522,1.408-19.118,2.302-28.745,2.722l3.689-158.841L291.889,374.071z"/>
			<path style="fill:#FFFFFF;" d="M266.833,217.952l-32.487,158.725c-10.195-0.525-20.369-1.534-30.48-2.995L266.833,217.952z"/>
			<path style="fill:#FFFFFF;" d="M266.833,217.952l-94.424,149.655c-3.111-0.736-6.212-1.524-9.301-2.354
				c-8.335-2.239-16.921-4.582-25.466-7.273L266.833,217.952z"/>
			<path style="fill:#FFFFFF;" d="M266.833,217.952L101.097,343.16c-7.809-4.204-15.166-9.081-21.767-14.893
				c-3.437-3.038-6.684-6.285-9.722-9.732c-0.357-0.399-0.704-0.799-1.04-1.209L266.833,217.952z"/>
			<path style="fill:#FFFFFF;" d="M266.833,217.952L47.726,280.74c-2.827-8.398-4.625-17.121-5.224-25.971
				c-0.347-5.024-0.305-10.048,0.105-15.051L266.833,217.952z"/>
			<path style="fill:#FFFFFF;" d="M266.833,217.952L54.2,199.023c4.782-9.428,10.92-18.162,18.193-25.813
				c2.449-2.575,5.013-4.961,7.662-7.168L266.833,217.952z"/>
			<path style="fill:#FFFFFF;" d="M266.833,217.952L116.641,144.16c10.142-4.866,20.411-9.564,30.154-15.387L266.833,217.952z"/>
			<path style="fill:#FFFFFF;" d="M266.833,217.952l-97.84-105.806c6.558-5.98,12.77-12.392,19.181-18.561L266.833,217.952z"/>
			<path style="fill:#FFFFFF;" d="M266.833,217.952L210.13,75.339c8.051-5.434,16.68-9.922,25.697-13.464L266.833,217.952z"/>
			<path style="fill:#FFFFFF;" d="M295.694,51.659l-28.861,166.293l-1.734-164.201C275.167,52.037,285.446,51.344,295.694,51.659z"
				/>
			<path style="fill:#FFFFFF;" d="M371.357,74.33L266.833,217.952l75.505-157.58c2.438,0.872,4.856,1.797,7.241,2.796
				C357.063,66.279,364.336,70.031,371.357,74.33z"/>
		</g>
	</g>
</g>
<g id="Computer">
	<g>
		<g>
			<path style="fill:#263238;" d="M374.515,284.126V127.954c0-5.21-4.223-9.433-9.433-9.433H142.877
				c-5.21,0-9.433,4.223-9.433,9.433v156.172H374.515z"/>
			<rect x="148.85" y="132.75" style="fill:#FFFFFF;" width="210.747" height="136.423"/>
			<g>
				<polygon style="fill:#FFFFFF;stroke:#263238;stroke-width:1.051;stroke-miterlimit:10;" points="133.443,284.126 
					98.162,356.418 410.866,356.418 374.515,284.126 				"/>
				<rect x="97.308" y="356.939" style="fill:#263238;" width="314.373" height="4.421"/>
				<g>
					<g>
						<path style="fill:#263238;" d="M164.13,288.423l-3.111,7.462H176.9l2.869-7.462H164.13z M144.739,296.936l-3.91,8.839h14.924
							l3.689-8.839H144.739z M140.356,306.827l-3.91,8.829h15.177l3.689-8.829H140.356z M191.772,306.827l-2.628,8.829h12.896
							l1.934-8.829H191.772z M219.761,296.936l-1.167,8.839h12.181l0.809-8.839H219.761z M205.047,306.827l-1.944,8.829h13.138
							l1.167-8.829H205.047z M218.458,306.827l-1.156,8.829h12.57l0.809-8.829H218.458z M232.646,296.936l-0.809,8.839h11.929
							l0.441-8.839H232.646z M233.424,288.423l-0.683,7.462h11.519l0.378-7.462H233.424z M257.083,296.936h-11.814l-0.441,8.839
							h12.35L257.083,296.936z M231.732,306.827l-0.799,8.829h12.35l0.431-8.829H231.732z M257.188,306.827h-12.413l-0.441,8.829
							h12.938L257.188,306.827z M269.884,306.827h-11.645l0.084,8.829h12.045L269.884,306.827z M281.319,288.423h-11.372
							l0.399,7.462h11.751L281.319,288.423z M282.213,296.936H270.41l0.473,8.839h12.265L282.213,296.936z M293.595,288.423H282.37
							l0.788,7.462h11.582L293.595,288.423z M294.898,296.936h-11.624l0.925,8.839h12.055L294.898,296.936z M283.253,306.827
							h-12.308l0.473,8.829h12.77L283.253,306.827z M296.412,306.827h-12.097l0.925,8.829h12.528L296.412,306.827z M358.286,296.936
							h-11.624l3.09,8.839h11.961L358.286,296.936z M326.702,316.706h-13.768l1.692,9.123h14.41L326.702,316.706z M349.005,306.827
							h-9.754l2.775,8.829h10.069L349.005,306.827z M362.122,306.827h-12.003l3.079,8.829h12.349L362.122,306.827z M152.317,316.706
							l-3.805,9.123h16.88l3.51-9.123H152.317z M382.701,326.88h-11.666l4.255,10.941h-1.129l-4.251-10.941H131.475l-4.845,10.941
							h260.738L382.701,326.88z M135.984,316.706l-4.046,9.123h15.439l3.805-9.123H135.984z M365.958,316.706h-12.392l3.185,9.123
							H369.5L365.958,316.706z M378.36,316.706h-11.277l3.552,9.123h11.624L378.36,316.706z M374.156,306.827h-10.91l3.437,8.829
							h11.236L374.156,306.827z M352.463,316.706h-10.1l2.869,9.123h10.416L352.463,316.706z M341.249,316.706h-13.474l2.344,9.123
							h14.01L341.249,316.706z M311.873,316.706h-12.875l1.398,9.123h13.169L311.873,316.706z M297.926,316.706h-12.57l0.956,9.123
							h13.012L297.926,316.706z M284.304,316.706h-12.822l0.483,9.123h13.296L284.304,316.706z M270.42,316.706h-12.087l0.095,9.123
							h12.486L270.42,316.706z M257.282,316.706h-13.001l-0.452,9.123h13.548L257.282,316.706z M230.828,316.706l-0.83,9.123h12.77
							l0.462-9.123H230.828z M217.165,316.706l-1.209,9.123h12.98l0.841-9.123H217.165z M202.882,316.706l-2.007,9.123h14.031
							l1.198-9.123H202.882z M188.84,316.706l-2.712,9.123h13.684l1.997-9.123H188.84z M170.026,316.706l-3.51,9.123h18.508
							l2.712-9.123H170.026z M338.138,306.827h-12.896l2.26,8.829h13.422L338.138,306.827z M369.942,296.936H359.41l3.437,8.839
							h10.857L369.942,296.936z M366.442,288.738l-0.137-0.315H356.1l2.901,7.462h10.489L366.442,288.738z M354.975,288.423h-11.288
							l2.607,7.462h11.582L354.975,288.423z M342.573,288.423h-9.123l2.354,7.462h9.375L342.573,288.423z M345.547,296.936h-9.417
							l2.785,8.839h9.722L345.547,296.936z M335.027,296.936h-12.318l2.27,8.839h12.833L335.027,296.936z M332.346,288.423h-11.814
							l1.913,7.462h12.244L332.346,288.423z M324.169,306.827h-13.064l1.64,8.829h13.684L324.169,306.827z M310.044,306.827h-12.57
							l1.356,8.829h12.843L310.044,306.827z M321.637,296.936h-12.371l1.64,8.839h12.991L321.637,296.936z M319.45,288.423h-11.761
							l1.387,7.462h12.286L319.45,288.423z M308.204,296.936H295.96l1.356,8.839h12.528L308.204,296.936z M306.628,288.423h-11.971
							l1.146,7.462h12.213L306.628,288.423z M269.348,296.936h-11.214l0.095,8.839h11.603L269.348,296.936z M268.896,288.423H258.05
							l0.074,7.462h11.172L268.896,288.423z M256.999,288.423H245.69l-0.368,7.462h11.75L256.999,288.423z M220.885,288.423
							l-0.988,7.462h11.793l0.683-7.462H220.885z M209.082,288.423l-1.639,7.462h11.404l0.978-7.462H209.082z M207.212,296.936
							l-1.934,8.839h12.265l1.156-8.839H207.212z M197.237,288.423l-2.218,7.462h11.351l1.629-7.462H197.237z M194.704,296.936
							l-2.617,8.839h12.108l1.944-8.839H194.704z M180.905,288.423l-2.869,7.462h15.891l2.218-7.462H180.905z M177.625,296.936
							l-3.395,8.839h16.764l2.628-8.839H177.625z M173.821,306.827l-3.395,8.829h17.626l2.628-8.829H173.821z M156.447,306.827
							l-3.689,8.829h16.543l3.395-8.829H156.447z M160.578,296.936l-3.689,8.839h16.207l3.405-8.839H160.578z M148.512,288.423
							l-3.311,7.462h14.683l3.111-7.462H148.512z M345.547,296.936h-9.417l2.785,8.839h9.722L345.547,296.936z"/>
					</g>
					<g>
						<polygon style="fill:#263238;" points="166.106,326.88 165.906,327.405 164.929,327.027 164.982,326.88 						"/>
					</g>
					<g>
						<polygon style="fill:#263238;" points="148.071,326.88 147.965,327.132 147.356,326.88 						"/>
					</g>
				</g>
			</g>
		</g>
		<path style="fill:#C6FF00;stroke:#2E353A;stroke-width:1.5776;stroke-miterlimit:10;" d="M313.182,225.542H196.779
			c-6.041,0-10.938-4.897-10.938-10.938v-42.096c0-6.041,4.897-10.938,10.938-10.938h116.402c6.041,0,10.938,4.897,10.938,10.938
			v42.096C324.12,220.645,319.223,225.542,313.182,225.542z"/>
		<g>
			<path style="fill:#263238;" d="M201.972,254.556h106.207c6.75,0,11.005-7.264,7.704-13.152l-53.103-94.721
				c-3.374-6.018-12.035-6.018-15.409,0l-53.103,94.721C190.967,247.292,195.222,254.556,201.972,254.556z"/>
			<path style="fill:none;stroke:#FFFFFF;stroke-width:0.7883;stroke-miterlimit:10;" d="M207.264,248.933h95.622
				c3.667,0,5.979-4.153,4.186-7.52l-47.811-89.746c-1.833-3.441-6.539-3.441-8.372,0l-47.811,89.746
				C201.285,244.779,203.597,248.933,207.264,248.933z"/>
			<g>
				<path style="fill:#FFFFFF;" d="M253.429,219.627h2.68c2.062,0,3.795-1.934,4.029-4.495l2.64-28.993
					c0.274-3.007-1.608-5.641-4.028-5.641h-8.392c-2.451,0-4.341,2.696-4.019,5.733l3.071,28.993
					C249.677,217.745,251.395,219.627,253.429,219.627z"/>
				<path style="fill:#FFFFFF;" d="M259.954,229.902c0,3.006-2.437,5.443-5.443,5.443c-3.006,0-5.443-2.437-5.443-5.443
					c0-3.006,2.437-5.443,5.443-5.443C257.517,224.459,259.954,226.896,259.954,229.902z"/>
			</g>
		</g>
	</g>
</g>
<g id="Hands">
	<g>
		<g>
			<g>
				<g>
					<g>
						<g>
							<path style="fill:#FFFFFF;" d="M393.563,400.402c-8.303-12.717-6.516-14.62-8.082-20.022
								c-1.555-5.392-9.858-17.184-12.623-22.134c-2.764-4.95-3.994-30.375-3.994-30.375c0.736-5.055-2.081-8.597-2.081-8.597
								s0.652-4.982,0.904-11.772c0.263-6.789-2.323-8.913-3.752-10.973c-1.419-2.07-5.749-14.494-6.989-15.482
								c-1.24-0.988-3.689,3.647-3.689,3.647c-1.188,5.392,4.257,15.786,4.257,15.786l-2.113,12.465l-6.537-9.375
								c0,0-4.204-20.033-6.863-22.639c-2.67-2.607-12.717,3.058-12.717,3.058s-1.23-1.65-4.183-3.962
								c-2.943-2.302-21.462,6.747-21.462,6.747c-2.817-2.628-9.827-6.821-13.674-4.603c-3.847,2.218-12.78,19.948-9.354,22.135
								c3.426,2.186,11.325-3.677,11.325-3.677s10.022,6.053,11.703,10.583c1.692,4.53,5.991,22.618,6.485,26.433
								c0.494,3.815-2.565,13.411-2.565,13.411c-4.498-13.495-20.106-25.309-25.645-25.077c-5.528,0.221-4.572,3.941-3.868,6.264
								c0.694,2.333,7.715,8.219,7.715,8.219l4.435,9.112c0,0,14.115,30.805,16.091,34.095c1.965,3.279,4.603,3.437,4.603,3.437
								l30.375,11.551c7.967,8.051,30.701,58.248,30.701,58.248c53.865,12.171,58.227-20.127,58.227-20.127
								S401.876,413.12,393.563,400.402z M312.376,295.754l4.557-1.189l1.713,0.641l6.001,14L312.376,295.754z"/>
							
								<path style="fill:none;stroke:#263238;stroke-width:1.051;stroke-linecap:round;stroke-linejoin:round;stroke-miterlimit:10;" d="
								M372.857,458.897c0,0-25.698-57.293-31.595-60.242c-5.898-2.949-29.068-9.689-33.702-13.481
								c-4.634-3.792-18.957-41.285-22.327-45.497c-3.37-4.213-10.111-7.162-7.162-12.217c2.949-5.055,20.221,2.528,29.489,23.591
								c0,0,2.949-9.268,2.528-14.323c-0.314-3.767-3.669-16.422-5.358-22.628c-0.68-2.497-1.935-4.79-3.658-6.72
								c-1.44-1.614-3.207-3.409-4.643-4.307c-2.965-1.853-5.682-2.717-7.041-6.547"/>
							
								<path style="fill:none;stroke:#263238;stroke-width:1.051;stroke-linecap:round;stroke-linejoin:round;stroke-miterlimit:10;" d="
								M291.846,300.17c0,0-4.909,4.43-8.091,4.589c-3.182,0.159-3.977-0.318-3.977-3.341c0-3.023,7.318-17.817,10.181-19.249
								c2.863-1.432,10.181,1.75,13.681,5.091c3.5,3.341,21.46,22.43,21.46,22.43l-6.665-14.953c0,0-2.863-0.318-3.341-3.659"/>
							
								<path style="fill:none;stroke:#263238;stroke-width:1.051;stroke-linecap:round;stroke-linejoin:round;stroke-miterlimit:10;" d="
								M329.286,283.996c0,0,9.193-5.914,12.711-3.066c3.519,2.849,4.49,21.281,8.864,26.308c4.374,5.027,7.055,8.714,8.061,13.573"
								/>
							
								<path style="fill:none;stroke:#263238;stroke-width:1.051;stroke-linecap:round;stroke-linejoin:round;stroke-miterlimit:10;" d="
								M355.66,313.321c0,0,1.365-6.065,1.848-12.838c0,0-4.725-6.819-4.252-15.791c0,0,1.608-2.804,3.689-3.645
								c2.081-0.841,4.162,12.657,8.419,17.544c4.257,4.887,1.419,20.682,1.419,20.682s3.122,4.486,2.081,8.598
								c0,0,2.633,26.494,3.994,30.375c1.36,3.881,10.641,15.525,12.835,22.78c2.194,7.256,2.7,12.15,9.281,21.43
								c6.581,9.281,36.111,35.099,36.111,35.099"/>
							
								<path style="fill:none;stroke:#263238;stroke-width:1.051;stroke-linecap:round;stroke-linejoin:round;stroke-miterlimit:10;" d="
								M303.64,287.26c0,0,17.065-8.524,21.46-7.229c4.395,1.295,9.413,14.082,12.65,20.233c3.237,6.151,3.723,8.579,7.769,12.787
								c4.047,4.208,4.694,5.503,5.341,9.064"/>
							
								<path style="fill:none;stroke:#263238;stroke-width:1.051;stroke-linecap:round;stroke-linejoin:round;stroke-miterlimit:10;" d="
								M330.162,315.103c2.181,2.147,3.442,5.199,3.411,8.259"/>
						</g>
						<g style="opacity:0.5;">
							<path style="fill:#C6FF00;" d="M337.876,394.093c-5.187-2.423-12.602-6.168-18.115-7.711
								c-6.385-1.786-12.939-5.436-14.347-12.351c-0.77-3.781,0.78-7.775,4.149-9.657c6.642-3.71,11.907,5.083,18.882-0.318
								c3.283-2.543,4.922-6.642,4.737-10.791c-0.268-6.009-3.478-11.407-5.854-16.927c-2.384-5.54-3.636-11.633-0.922-17.312
								c0.314-0.657,0.688-1.313,1.266-1.756c2.501-1.915,5.578,2.578,7.581,3.54c3.466,1.665,7.243-4.579,11.046-4.01
								c3.803,0.569,5.456,4.01,6.099,11.505c3.339-5.924,9.331-5.704,10.058-1.187c1.247,7.746,4.754,19.274,5.262,23.821
								c1.682,15.058,11.567,14.738,15.124,29.466c4.478,18.537,12.697,28.149,23.137,36.45c4.18,3.323,7.279,7.751,11.195,11.382
								c0.435,0.403,0.853,0.849,1.252,1.329c3.402,4.099-1.199,9.923-6.1,7.837c-3.078-1.31-6.331-2.209-9.648-2.644
								c-15.134-1.985-31.401,6.923-41.208-7.432C352.938,414.84,353.212,401.256,337.876,394.093z"/>
							<path style="opacity:0.2;fill:#FFFFFF;" d="M337.876,394.093c-5.187-2.423-12.602-6.168-18.115-7.711
								c-6.385-1.786-12.939-5.436-14.347-12.351c-0.77-3.781,0.78-7.775,4.149-9.657c6.642-3.71,11.907,5.083,18.882-0.318
								c3.283-2.543,4.922-6.642,4.737-10.791c-0.268-6.009-3.478-11.407-5.854-16.927c-2.384-5.54-3.636-11.633-0.922-17.312
								c0.314-0.657,0.688-1.313,1.266-1.756c2.501-1.915,5.578,2.578,7.581,3.54c3.466,1.665,7.243-4.579,11.046-4.01
								c3.803,0.569,5.456,4.01,6.099,11.505c3.339-5.924,9.331-5.704,10.058-1.187c1.247,7.746,4.754,19.274,5.262,23.821
								c1.682,15.058,11.567,14.738,15.124,29.466c4.478,18.537,12.697,28.149,23.137,36.45c4.18,3.323,7.279,7.751,11.195,11.382
								c0.435,0.403,0.853,0.849,1.252,1.329c3.402,4.099-1.199,9.923-6.1,7.837c-3.078-1.31-6.331-2.209-9.648-2.644
								c-15.134-1.985-31.401,6.923-41.208-7.432C352.938,414.84,353.212,401.256,337.876,394.093z"/>
						</g>
					</g>
					<g>
						<g>
							<path style="fill:#FFFFFF;" d="M70.118,445.589c0,0,15.966,33.182,58.321,19.962l26.285-56.345
								c0,0,21.85-15.539,31.824-20.895c9.974-5.357,21.594-10.909,23.433-13.823c1.839-2.915,9.593-23.537,10.309-28.643
								c0.716-5.107,1.547-8.562,2.404-12.432c0.858-3.871,0.714-9.694-4.14-6.481c-4.854,3.213-8.329,5.922-10.041,14.06
								C206.802,349.128,198,353.46,198,353.46s2.967-24.2,8.068-30.098c5.101-5.898,17.489-19.046,17.489-19.046
								s7.021,5.744,11.851,2.934c4.83-2.81-9.596-18.627-14.456-17.015c0,0-2.76,0.027-4.86,1.612l-8.7-6.738
								c0,0-5.062-5.273-7.733-3.897c-2.671,1.376-6.909,7.476-6.909,7.476s-5.73-7.32-10.519-6.892
								c-4.789,0.428-11.562,7.067-13.809,10.41c-2.247,3.343-8.211,13.52-9.676,15.513c0,0,2.234-14.328,2.18-17.491
								c-0.054-3.164,0.728-14.215-2.547-14.205c-3.275,0.01-5.01,9.945-6.714,17.554c-1.704,7.609-2.64,11.327-4.882,15.831
								c-2.242,4.504-10.323,33.669-10.323,33.669s-9.737,28.333-12.27,33.5c-2.534,5.168-7.632,13.649-10.746,17.447
								C110.33,397.82,70.118,445.589,70.118,445.589z"/>
							
								<path style="fill:none;stroke:#263238;stroke-width:1.051;stroke-linecap:round;stroke-linejoin:round;stroke-miterlimit:10;" d="
								M216.093,291.846c0,0-6.878-5.436-13.077-10.029c-6.199-4.594-15.798,18.204-23.597,24.603s-10.199,7.799-12.199,12.598"/>
							
								<path style="fill:none;stroke:#263238;stroke-width:1.051;stroke-linecap:round;stroke-linejoin:round;stroke-miterlimit:10;" d="
								M186.44,294.141c-0.809,2.402-2.346,6.506-4.283,9.494"/>
							
								<path style="fill:none;stroke:#263238;stroke-width:1.051;stroke-linecap:round;stroke-linejoin:round;stroke-miterlimit:10;" d="
								M201.775,303.48c0.899-3.43,1.207-7.015,0.906-10.549"/>
							
								<path style="fill:none;stroke:#263238;stroke-width:1.051;stroke-linecap:round;stroke-linejoin:round;stroke-miterlimit:10;" d="
								M158.38,308.232c0,0,5.731-31.859,0-32.211c-5.731-0.352-5.731,20.757-9.953,29.377c-4.222,8.62-12.841,43.449-18.822,58.402
								c-5.981,14.952-9.147,20.933-13.545,26.914c-4.398,5.981-47.144,56.291-47.144,56.291"/>
							
								<path style="fill:none;stroke:#263238;stroke-width:1.051;stroke-linecap:round;stroke-linejoin:round;stroke-miterlimit:10;" d="
								M192.751,288.687c0,0-7.004-7.734-12.021-6.87c-5.017,0.864-11.237,7.436-17.258,18.297
								c-6.02,10.861-11.238,15.709-15.652,18.904c-4.415,3.195-3.612,9.215-5.418,11.824"/>
							
								<path style="fill:none;stroke:#263238;stroke-width:1.051;stroke-linecap:round;stroke-linejoin:round;stroke-miterlimit:10;" d="
								M164.179,324.385c-0.477,1.618-0.717,3.306-0.71,4.993"/>
							
								<path style="fill:none;stroke:#263238;stroke-width:1.051;stroke-linecap:round;stroke-linejoin:round;stroke-miterlimit:10;" d="
								M127.584,467.397c0,0,24.205-52.323,27.139-58.191c0,0,13.447-10.513,22.249-15.648c8.802-5.134,29.34-15.159,33.007-19.071
								c3.667-3.912,8.313-22.249,9.78-26.65c1.467-4.401,0.734-8.557,2.934-14.425c2.201-5.868,0-8.624-4.401-6.635
								c-4.401,1.989-8.802,10.058-9.78,14.214C207.536,345.147,198,353.46,198,353.46s1.956-18.142,8.068-30.098
								c0,0,13.707-16.113,17.489-19.046c0,0,7.694,5.134,11.851,2.934c4.157-2.201-1.467-7.589-4.89-11.496
								c-3.423-3.907-9.535-7.819-14.425-3.907c-4.89,3.912-21.76,18.641-29.34,23.257c-7.579,4.616-7.579,5.349-9.046,9.506"/>
						</g>
						<g style="opacity:0.5;">
							<path style="fill:#C6FF00;" d="M176.668,390.26c6.521-2.987,13.389-7.15,19.471-10.952s14.52-10.654,10.006-17.798
								c-3.1-5.82-15.246,4.787-20.369-0.647c-1.046-1.11-1.637-2.581-1.801-4.098c-0.727-6.698,5.674-12.918,6.43-19.614
								c0.522-4.625,0.118-15.449-7.24-17.71c-4.524-1.39-6.763,4.944-6.763,11.641c-2.505-5.216-4.296-10.588-8.824-9.824
								c-4.107,0.234-6.135,3.613-5.964,10.62c-5.344-1.037-5.314-5.483-6.034-9.802c-0.651-3.907-6.023-4.161-8.804-2.547
								c-2.669,1.549-6.052,13.714-6.842,16.697c-8.668,32.705-17.025,51.228-36.089,73.316c-3.601,4.173-6.84,7.343-10.28,11.251
								c-2.404,2.73,0.048,6.916,3.621,6.233c13.212-2.526,27.43-13.271,39.254-6.367c1.576,0.92,3.313,1.572,5.129,1.751
								c9.265,0.912,7.352-10.104,11.683-15.235C158.967,400.406,168.686,393.916,176.668,390.26z"/>
							<path style="opacity:0.2;fill:#FFFFFF;" d="M176.668,390.26c6.521-2.987,13.389-7.15,19.471-10.952
								s14.52-10.654,10.006-17.798c-3.1-5.82-15.246,4.787-20.369-0.647c-1.046-1.11-1.637-2.581-1.801-4.098
								c-0.727-6.698,5.674-12.918,6.43-19.614c0.522-4.625,0.118-15.449-7.24-17.71c-4.524-1.39-6.763,4.944-6.763,11.641
								c-2.505-5.216-4.296-10.588-8.824-9.824c-4.107,0.234-6.135,3.613-5.964,10.62c-5.344-1.037-5.314-5.483-6.034-9.802
								c-0.651-3.907-6.023-4.161-8.804-2.547c-2.669,1.549-6.052,13.714-6.842,16.697c-8.668,32.705-17.025,51.228-36.089,73.316
								c-3.601,4.173-6.84,7.343-10.28,11.251c-2.404,2.73,0.048,6.916,3.621,6.233c13.212-2.526,27.43-13.271,39.254-6.367
								c1.576,0.92,3.313,1.572,5.129,1.751c9.265,0.912,7.352-10.104,11.683-15.235
								C158.967,400.406,168.686,393.916,176.668,390.26z"/>
						</g>
					</g>
				</g>
				
					<path style="fill:none;stroke:#263238;stroke-width:1.051;stroke-linecap:round;stroke-linejoin:round;stroke-miterlimit:10;" d="
					M361.873,325.713c0.909,1.823,1.303,3.901,1.124,5.93"/>
			</g>
			
				<line style="fill:none;stroke:#263238;stroke-width:1.051;stroke-linecap:round;stroke-linejoin:round;stroke-miterlimit:10;" x1="317.451" y1="294.434" x2="312.376" y2="295.754"/>
		</g>
		<path style="fill:none;stroke:#263238;stroke-width:1.051;stroke-linecap:round;stroke-linejoin:round;stroke-miterlimit:10;" d="
			M350.132,326.776c0.851,1.671,1.087,3.646,0.653,5.47"/>
	</g>
</g>
</svg>
